<?xml version="1.0" encoding="UTF-8"?>
<svg version="1.1" xmlns="http://www.w3.org/2000/svg" width="512" height="512">
<path d="M0 0 C5.85147394 4.04399837 8.65173694 11.19551085 11.9375 17.3125 C13.2609164 19.7434696 14.59117806 22.17066595 15.921875 24.59765625 C16.25825485 25.21277069 16.5946347 25.82788513 16.94120789 26.4616394 C21.48320419 34.74409926 26.28882381 42.87213303 31.07421875 51.015625 C31.57791992 51.87502686 32.08162109 52.73442871 32.60058594 53.61987305 C33.48262581 55.12004867 34.37050625 56.61682006 35.26660156 58.10864258 C37.5724429 62.0001321 38.60920104 64.43099224 38 69 C36.67984153 72.35622378 35.15005609 73.86975171 32.1875 75.875 C25.25840918 80.91206059 21.1684947 86.71075411 19 95 C17.90638205 104.32005517 19.34234502 112.36466151 24.5625 120.1875 C29.97900982 126.92117598 37.59626127 130.62233791 46 132 C52.81641782 132.6311498 58.67410906 130.53121478 65.01953125 128.28515625 C67.86788611 127.33570463 69.6044926 126.88568797 72.52734375 127.73046875 C75.23599714 129.12116757 76.15418893 130.07367242 77.75 132.625 C78.23764328 133.38383987 78.72528656 134.14267975 79.22770691 134.92451477 C80.5915347 137.2911844 81.64393812 139.46219746 82.67817688 141.96598816 C84.60166761 146.35653049 86.58324096 150.56897041 90 154 C95.79124147 156.23369703 101.16837186 155.94927394 107.29296875 155.67578125 C108.96962045 155.66073122 110.64635513 155.65322447 112.32307434 155.65287781 C116.71825559 155.63387939 121.10599377 155.52204774 125.4989624 155.3873291 C130.83462847 155.23882342 136.17192702 155.18873431 141.50927448 155.13657665 C145.66239685 155.09592469 149.81197875 155.03684309 153.96366882 154.91804504 C155.47081402 154.88582751 156.97796017 154.85365453 158.48510742 154.8215332 C160.44960091 154.76579887 160.44960091 154.76579887 162.45378113 154.7089386 C166.34185079 155.02805793 168.70429193 155.94865578 172 158 C173.49335524 160.98671049 173.15207652 163.71659397 173.17700195 167.04833984 C173.18357315 167.77372452 173.19014435 168.49910919 173.19691467 169.24647522 C173.21665481 171.65129698 173.22831101 174.05605632 173.23828125 176.4609375 C173.24235678 177.28155293 173.2464323 178.10216835 173.25063133 178.94765091 C173.27149386 183.28996785 173.28579549 187.63225315 173.29516602 191.97460938 C173.30623863 196.46287672 173.34064741 200.95064939 173.38033772 205.43874168 C173.4064619 208.88740979 173.41485402 212.3359592 173.41844749 215.78471756 C173.42332337 217.4393511 173.4349658 219.093979 173.45348549 220.74851608 C173.47779171 223.06370204 173.47692838 225.37759705 173.4699707 227.69287109 C173.47877007 229.66904922 173.47877007 229.66904922 173.48774719 231.68515015 C173 235 173 235 171.1940155 237.40444946 C168.11997506 239.63997919 164.98503633 239.91662585 161.3125 240.375 C152.69446208 241.72396948 147.38808752 244.61191248 141.1875 250.8125 C136.05206132 258.29556779 133.13487008 265.78603796 134.40625 274.91796875 C136.34581438 284.02699432 139.75748401 291.02816643 147.5 296.4375 C152.45358704 299.42616418 156.8102488 300.9257676 162.5625 301.4375 C166.38024286 301.79802884 168.91332208 302.58853287 172 305 C173.4926597 307.98531939 173.16032254 310.7180135 173.19287109 314.04833984 C173.20104858 314.77372452 173.20922607 315.49910919 173.21765137 316.24647522 C173.24250099 318.65128755 173.25901891 321.05604093 173.2734375 323.4609375 C173.27876118 324.28155293 173.28408485 325.10216835 173.28956985 325.94765091 C173.31629777 330.2899609 173.335675 334.63224216 173.35009766 338.97460938 C173.36675778 343.46299008 173.41154719 347.95063825 173.4624691 352.43874168 C173.4960962 355.88740906 173.50766994 359.33590143 173.51332474 362.78471756 C173.52004833 364.43937412 173.53529926 366.09401872 173.55921555 367.74851608 C173.59077937 370.06391202 173.59091851 372.37731718 173.58349609 374.69287109 C173.59158295 376.01032318 173.5996698 377.32777527 173.60800171 378.68515015 C173 382 173 382 170.83845574 384.17571783 C167.54941756 386.28959039 165.85194772 386.50096787 161.9767065 386.50336456 C160.15236644 386.51901105 160.15236644 386.51901105 158.29117101 386.53497362 C156.94483895 386.52632576 155.59850928 386.51729915 154.25218201 386.50793457 C152.81940532 386.51254352 151.38663337 386.5188964 149.95387131 386.52684355 C146.01641586 386.54356091 142.07934759 386.53527979 138.14189065 386.52289867 C133.89575506 386.51386036 129.64968674 386.52781178 125.40356445 386.53881836 C117.08559101 386.55662077 108.7677618 386.55275608 100.44978266 386.5411678 C93.69124688 386.53214112 86.93275158 386.53090615 80.1742115 386.53526306 C79.21299349 386.53587599 78.25177548 386.53648893 77.26142966 386.53712043 C75.30886124 386.53839931 73.35629283 386.53969616 71.40372444 386.5410108 C53.08752049 386.55242148 34.77139657 386.53929491 16.45520575 386.51780933 C0.73059514 386.49993506 -14.99389738 386.50304423 -30.71850586 386.52148438 C-48.96987778 386.54287756 -67.22117955 386.5513258 -85.47256225 386.53903532 C-87.41771725 386.53776109 -89.36287225 386.53650361 -91.30802727 386.53526306 C-92.26513574 386.53464596 -93.22224422 386.53402886 -94.20835598 386.53339306 C-100.96122804 386.5299357 -107.71405568 386.53577672 -114.46692085 386.54518127 C-122.69283001 386.55638528 -130.91858643 386.55339486 -139.14447803 386.5320583 C-143.34347136 386.5215267 -147.54220981 386.51746178 -151.7412014 386.53065491 C-155.58225132 386.54254113 -159.42280917 386.53607931 -163.2638142 386.5147447 C-164.65605014 386.51026256 -166.04832733 386.51258094 -167.44053692 386.52224785 C-169.32784552 386.53435112 -171.21526995 386.51958561 -173.10254765 386.50336456 C-174.15242204 386.50271515 -175.20229643 386.50206574 -176.2839852 386.50139666 C-179.69228771 385.87219851 -180.84974807 384.65754371 -183 382 C-184.28446919 379.43106162 -184.32977144 377.23423663 -184.5625 374.375 C-184.68818359 372.87066406 -184.68818359 372.87066406 -184.81640625 371.3359375 C-184.87699219 370.56507813 -184.93757813 369.79421875 -185 369 C-185.86818359 369.47953125 -185.86818359 369.47953125 -186.75390625 369.96875 C-190.07464233 371.493401 -193.51534467 372.0901715 -197 371 C-202.37928487 365.74879334 -205.67255521 358.88119215 -209.3125 352.375 C-210.72353542 349.86621441 -212.13716502 347.35889453 -213.55078125 344.8515625 C-213.91213165 344.20904541 -214.27348206 343.56652832 -214.64578247 342.90454102 C-217.24037748 338.30420237 -219.90770565 333.75137091 -222.60546875 329.2109375 C-223.71338844 327.3306518 -224.81964016 325.44939708 -225.92514038 323.56768799 C-226.63582459 322.36585463 -227.35239762 321.16748211 -228.07510376 319.97283936 C-235.20083981 308.18002134 -235.20083981 308.18002134 -234 301 C-231.93398396 298.35291694 -229.63641278 296.50913023 -227.02734375 294.421875 C-222.19074925 290.40795358 -219.18459225 286.92470569 -217 281 C-216.76410156 280.37351562 -216.52820313 279.74703125 -216.28515625 279.1015625 C-213.74523662 270.96717937 -215.09697022 263.30012041 -218.625 255.6875 C-222.82458922 247.99488751 -227.87618206 243.68488382 -236.12890625 240.6953125 C-244.88843955 238.57395614 -252.76575567 239.38158074 -260.88671875 243.08984375 C-263.8256904 244.35561158 -265.86157893 244.65687883 -269 244 C-274.21890419 239.70790121 -277.13533012 234.06129713 -280.4375 228.25 C-281.04005615 227.20392578 -281.6426123 226.15785156 -282.26342773 225.08007812 C-287.34919282 216.22198087 -292.34395617 207.31127231 -297.29272461 198.37597656 C-300.05691853 193.39690729 -302.8567152 188.51354311 -306.05322266 183.79736328 C-307.58516493 180.88912217 -307.87570296 178.33105886 -307.66040039 175.07421875 C-305.32183421 167.72913251 -292.5156101 163.14039844 -286.25 159.625 C-285.01008484 158.92376348 -283.77050831 158.22192792 -282.53125 157.51953125 C-279.96288622 156.06442151 -277.39310222 154.61186886 -274.82226562 153.16113281 C-268.86778176 149.79812652 -262.93518099 146.39692261 -257 143 C-254.66689267 141.66627105 -252.33344591 140.33313648 -250 139 C-248.83332707 138.33334429 -247.66666041 137.66667762 -246.5 137 C-234.83333333 130.33333333 -223.16666667 123.66666667 -211.5 117 C-210.63376511 116.50500755 -210.63376511 116.50500755 -209.75003052 116.00001526 C-208.58326463 115.33329335 -207.41649624 114.66657582 -206.24972534 113.99986267 C-203.33455622 112.33407716 -200.41943053 110.66821573 -197.50439453 109.00219727 C-192.23656805 105.99159687 -186.96842441 102.98155853 -181.69866943 99.97433472 C-169.78423855 93.17522042 -157.87811196 86.36246827 -146 79.5 C-133.53397777 72.29787206 -121.03638756 65.15170324 -108.53222656 58.01611328 C-103.2695208 55.01266824 -98.00882814 52.00570035 -92.74798584 48.99899292 C-89.83207328 47.33251718 -86.91603002 45.66627018 -84 44 C-82.83333271 43.33333443 -81.66666604 42.66666776 -80.5 42 C-27.5078125 11.71875 -27.5078125 11.71875 -24.30175781 9.90234375 C-21.95013919 8.54743305 -19.62903495 7.17035605 -17.31542969 5.75390625 C-16.69795868 5.3830188 -16.08048767 5.01213135 -15.44430542 4.63000488 C-13.7183792 3.5921026 -12.00122533 2.539653 -10.28466797 1.48632812 C-6.54129873 -0.20756454 -4.06517037 -0.41224004 0 0 Z M-167 172 C-167 188.83 -167 205.66 -167 223 C-163.04 224.32 -159.08 225.64 -155 227 C-141.63655472 233.92323069 -133.78334951 243.03998749 -128.86328125 257.29296875 C-125.55853618 271.48393287 -127.88956218 285.36544382 -135.25 297.8125 C-143.18435455 309.48757561 -154.05801533 314.14675575 -167 319 C-167 335.5 -167 352 -167 369 C-144.56 369 -122.12 369 -99 369 C-98.34 365.04 -97.68 361.08 -97 357 C-93 354 -93 354 -90.9296875 353.8203125 C-88.93618785 354.11592652 -86.9658049 354.55610857 -85 355 C-83 358 -83 358 -82 369 C-3.13 369 75.74 369 157 369 C157 352.5 157 336 157 319 C152.545 317.515 152.545 317.515 148 316 C134.35402575 310.00376631 125.90740423 301.26384514 120.0078125 287.72265625 C115.76072127 276.53864934 115.76193833 263.27945575 120.51953125 252.27734375 C126.54236325 239.45550727 134.60492265 231.44332446 147.69921875 225.82421875 C150.74944448 224.73152329 153.88462377 223.89010749 157 223 C157 206.17 157 189.34 157 172 C78.13 172 -0.74 172 -82 172 C-82.33 175.96 -82.66 179.92 -83 184 C-86 187 -86 187 -87.9375 187.3984375 C-93.52808399 187.33490814 -93.52808399 187.33490814 -95.9375 185.625 C-99.11644474 180.76308451 -98.2448604 179.55139604 -99 172 C-121.44 172 -143.88 172 -167 172 Z " fill="#000000" transform="translate(323,63)"/>
<path d="M0 0 C6.36157164 4.35185899 10.43374065 13.15351375 12.94140625 20.26953125 C14.74699983 25.01061151 16.45033324 29.38133873 20.3125 32.8125 C27.26011396 35.91750164 34.88977129 36.63668109 42.38647461 37.46362305 C50.33165542 38.41094582 55.89395692 39.65506468 61.3125 45.8125 C63.89228893 49.96259524 64.04040856 55.04587297 63.3125 59.8125 C61.36831951 64.54039347 58.73402326 67.8528925 55.25 71.5625 C54.53505371 72.34391357 54.53505371 72.34391357 53.80566406 73.14111328 C51.41660067 75.72309709 49.03116812 78.04921699 46.33203125 80.3203125 C41.04309908 84.73579993 41.04309908 84.73579993 38.84375 91.01953125 C39.07517621 94.70168759 39.62558874 98.18818921 40.3125 101.8125 C40.67837392 104.43589385 41.03263184 107.06093512 41.375 109.6875 C41.54515625 110.93144531 41.7153125 112.17539062 41.890625 113.45703125 C42.7203134 120.05612696 43.06863268 124.98401826 39.3125 130.8125 C35.99963588 134.7521222 33.40136161 136.83387277 28.3125 137.8125 C20.37742568 137.57062458 14.63335867 134.94958086 7.625 131.375 C5.62265075 130.37318401 3.61878711 129.37438806 1.61328125 128.37890625 C0.73841064 127.93490479 -0.13645996 127.49090332 -1.0378418 127.03344727 C-6.7109801 124.18151304 -6.7109801 124.18151304 -12.79956055 124.76293945 C-13.88019775 125.31167725 -14.96083496 125.86041504 -16.07421875 126.42578125 C-16.65790726 126.71478806 -17.24159576 127.00379486 -17.8429718 127.30155945 C-19.69688942 128.22435189 -21.53561285 129.17362608 -23.375 130.125 C-25.22783773 131.05923827 -27.08336586 131.98796344 -28.93916321 132.91630554 C-30.6183713 133.76015321 -32.29117801 134.61670353 -33.96362305 135.47387695 C-38.44458422 137.67600209 -41.7018919 138.2211564 -46.6875 137.8125 C-51.95989347 136.00257388 -55.63270757 133.57797618 -58.6875 128.8125 C-60.93903861 122.05788418 -60.01206288 114.60850372 -58.46875 107.76953125 C-55.79038699 96.81903582 -55.79038699 96.81903582 -58.00292969 86.14160156 C-61.57286155 81.29462091 -65.93062676 77.45822172 -70.56542969 73.65576172 C-80.38487954 65.12644207 -80.38487954 65.12644207 -80.92578125 59.203125 C-81.11024191 51.39752663 -80.25703316 47.58982303 -74.80859375 41.82421875 C-70.04313011 38.75261202 -64.96204008 38.12275375 -59.4375 37.125 C-58.34308594 36.91294922 -57.24867188 36.70089844 -56.12109375 36.48242188 C-49.98931581 35.31848558 -43.89976608 34.40882512 -37.6875 33.8125 C-37.41583008 33.10222656 -37.14416016 32.39195312 -36.86425781 31.66015625 C-34.74566062 26.53332686 -32.04620642 21.70309503 -29.4375 16.8125 C-28.87675781 15.73226563 -28.31601562 14.65203125 -27.73828125 13.5390625 C-21.32574167 1.5433187 -14.02074599 -4.51515549 0 0 Z " fill="#000000" transform="translate(348.6875,266.1875)"/>
<path d="M0 0 C2.06505719 3.09758578 2.25540687 3.80149301 2.29052734 7.31616211 C2.3096669 8.6178257 2.3096669 8.6178257 2.32919312 9.94578552 C2.33141876 10.88019974 2.33364441 11.81461395 2.3359375 12.77734375 C2.3425943 13.74023819 2.3492511 14.70313263 2.35610962 15.69520569 C2.36623593 17.73192432 2.37092665 19.76867614 2.37060547 21.80541992 C2.37497863 24.92226775 2.41129855 28.03769965 2.44921875 31.15429688 C2.45508688 33.13280765 2.4590563 35.11132516 2.4609375 37.08984375 C2.47530853 38.02223373 2.48967957 38.95462372 2.50448608 39.91526794 C2.45893105 46.36309503 2.45893105 46.36309503 0.15478516 49.56079102 C-2.66949409 51.4471638 -4.60288546 51.93067113 -8 52 C-11.83524589 50.34387109 -13.43745842 48.81415733 -15 45 C-15.26069641 43.03407288 -15.26069641 43.03407288 -15.2746582 40.95336914 C-15.28895622 39.7767849 -15.28895622 39.7767849 -15.30354309 38.57643127 C-15.30217598 37.31850014 -15.30217598 37.31850014 -15.30078125 36.03515625 C-15.30506638 35.16483261 -15.3093515 34.29450897 -15.31376648 33.39781189 C-15.31950201 31.55956898 -15.32001576 29.72130337 -15.31567383 27.88305664 C-15.31251512 25.07593935 -15.33597787 22.26987759 -15.36132812 19.46289062 C-15.36360138 17.67448049 -15.36430449 15.88606753 -15.36328125 14.09765625 C-15.372491 13.26105972 -15.38170074 12.4244632 -15.39118958 11.56251526 C-15.35420801 6.88672428 -15.03780731 3.79508174 -12 0 C-7.67364668 -2.76405907 -4.62047599 -1.83075464 0 0 Z " fill="#000000" transform="translate(239,345)"/>
<path d="M0 0 C2.09399414 1.41162109 2.09399414 1.41162109 4 4 C4.61920093 7.27446313 4.58421243 10.51504108 4.56640625 13.83984375 C4.57570412 15.27850548 4.57570412 15.27850548 4.58518982 16.74623108 C4.59228745 18.77278631 4.58911497 20.79939986 4.57641602 22.82592773 C4.5625628 25.923458 4.59660669 29.01795986 4.63476562 32.11523438 C4.63571696 34.08593824 4.63385721 36.05664588 4.62890625 38.02734375 C4.64216446 38.95143539 4.65542267 39.87552704 4.66908264 40.82762146 C4.60349585 45.36797183 4.47451499 47.37691892 1.64819336 51.08813477 C-1 53 -1 53 -4 53.5625 C-7.65907504 52.87642343 -9.35167676 51.57265686 -12 49 C-13.69671408 45.60657185 -13.18490156 41.74577488 -13.203125 38.01171875 C-13.20882507 37.11636917 -13.21452515 36.22101959 -13.22039795 35.29853821 C-13.2298539 33.40126733 -13.23638429 31.50397999 -13.24023438 29.60668945 C-13.24992639 26.7095047 -13.28093831 23.81303338 -13.3125 20.91601562 C-13.31903143 19.07292088 -13.32428135 17.22982106 -13.328125 15.38671875 C-13.3404718 14.52197433 -13.3528186 13.65722992 -13.36553955 12.76628113 C-13.34806997 8.02783323 -13.11309018 4.83357255 -10 1 C-6.87057535 -0.56471233 -3.38917777 -0.69701958 0 0 Z " fill="#000000" transform="translate(237,271)"/>
</svg>
